<mxfile host="app.diagrams.net" agent="Mozilla/5.0 (Windows NT 10.0; Win64; x64) AppleWebKit/537.36 (KHTML, like Gecko) Chrome/135.0.0.0 Safari/537.36" version="26.2.15">
  <diagram name="Page-1" id="rlhQiy8wEkeaOtRQAIwB">
    <mxGraphModel dx="786" dy="451" grid="1" gridSize="10" guides="1" tooltips="1" connect="1" arrows="1" fold="1" page="1" pageScale="1" pageWidth="850" pageHeight="1100" math="0" shadow="0">
      <root>
        <mxCell id="0" />
        <mxCell id="1" parent="0" />
        <mxCell id="4dtUEIqjCvLmsaNRHgBX-1" value="&lt;h1 style=&quot;margin-top: 0px;&quot;&gt;Client side dockerized agent&lt;/h1&gt;" style="text;html=1;whiteSpace=wrap;overflow=hidden;rounded=0;" vertex="1" parent="1">
          <mxGeometry x="245" y="50" width="360" height="40" as="geometry" />
        </mxCell>
        <mxCell id="4dtUEIqjCvLmsaNRHgBX-3" value="" style="swimlane;startSize=0;" vertex="1" parent="1">
          <mxGeometry x="200" y="160" width="290" height="230" as="geometry" />
        </mxCell>
        <mxCell id="4dtUEIqjCvLmsaNRHgBX-9" style="edgeStyle=orthogonalEdgeStyle;rounded=0;orthogonalLoop=1;jettySize=auto;html=1;exitX=0.5;exitY=1;exitDx=0;exitDy=0;entryX=0.5;entryY=0;entryDx=0;entryDy=0;" edge="1" parent="4dtUEIqjCvLmsaNRHgBX-3" source="4dtUEIqjCvLmsaNRHgBX-7" target="4dtUEIqjCvLmsaNRHgBX-8">
          <mxGeometry relative="1" as="geometry" />
        </mxCell>
        <mxCell id="4dtUEIqjCvLmsaNRHgBX-7" value="&lt;font style=&quot;font-size: 14px;&quot;&gt;Network Inferface: eth0&lt;/font&gt;" style="ellipse;whiteSpace=wrap;html=1;" vertex="1" parent="4dtUEIqjCvLmsaNRHgBX-3">
          <mxGeometry x="90" y="20" width="120" height="80" as="geometry" />
        </mxCell>
        <mxCell id="4dtUEIqjCvLmsaNRHgBX-8" value="&lt;font style=&quot;font-size: 14px;&quot;&gt;Dockerized Agent&lt;/font&gt;" style="rounded=1;whiteSpace=wrap;html=1;" vertex="1" parent="4dtUEIqjCvLmsaNRHgBX-3">
          <mxGeometry x="90" y="150" width="120" height="60" as="geometry" />
        </mxCell>
        <mxCell id="4dtUEIqjCvLmsaNRHgBX-10" value="&lt;font style=&quot;font-size: 14px;&quot;&gt;Receive Data from interface&lt;/font&gt;" style="text;html=1;align=center;verticalAlign=middle;whiteSpace=wrap;rounded=0;" vertex="1" parent="4dtUEIqjCvLmsaNRHgBX-3">
          <mxGeometry x="160" y="100" width="90" height="30" as="geometry" />
        </mxCell>
        <mxCell id="4dtUEIqjCvLmsaNRHgBX-14" value="&lt;font style=&quot;font-size: 14px;&quot;&gt;Send Parsed Data&lt;/font&gt;" style="text;html=1;align=center;verticalAlign=middle;whiteSpace=wrap;rounded=0;" vertex="1" parent="4dtUEIqjCvLmsaNRHgBX-3">
          <mxGeometry x="230" y="190" width="60" height="30" as="geometry" />
        </mxCell>
        <mxCell id="4dtUEIqjCvLmsaNRHgBX-5" value="&lt;font style=&quot;font-size: 18px;&quot;&gt;Client Edge Device&lt;/font&gt;" style="text;html=1;align=center;verticalAlign=middle;whiteSpace=wrap;rounded=0;" vertex="1" parent="1">
          <mxGeometry x="250" y="120" width="180" height="30" as="geometry" />
        </mxCell>
        <mxCell id="4dtUEIqjCvLmsaNRHgBX-16" value="&lt;div&gt;&lt;font style=&quot;font-size: 14px;&quot;&gt;{&lt;/font&gt;&lt;/div&gt;&lt;font size=&quot;3&quot; style=&quot;&quot;&gt;&lt;span style=&quot;white-space: pre;&quot;&gt;&#x9;&lt;/span&gt;&lt;span style=&quot;white-space: pre;&quot;&gt;&#x9;&lt;span style=&quot;white-space: pre;&quot;&gt;&#x9;&lt;/span&gt;&lt;span style=&quot;white-space: pre;&quot;&gt;&#x9;&lt;/span&gt;&lt;span style=&quot;white-space: pre;&quot;&gt;&#x9;&lt;/span&gt;&lt;/span&gt;&quot;Source IP&quot;: &quot;10.0.1.0&quot;&lt;/font&gt;&lt;div&gt;&lt;font size=&quot;3&quot; style=&quot;&quot;&gt;}&lt;/font&gt;&lt;/div&gt;" style="text;html=1;align=center;verticalAlign=middle;whiteSpace=wrap;rounded=0;" vertex="1" parent="1">
          <mxGeometry x="140" y="490" width="400" height="80" as="geometry" />
        </mxCell>
        <mxCell id="4dtUEIqjCvLmsaNRHgBX-13" value="" style="endArrow=classic;html=1;rounded=0;" edge="1" parent="1">
          <mxGeometry width="50" height="50" relative="1" as="geometry">
            <mxPoint x="420" y="339.5" as="sourcePoint" />
            <mxPoint x="550" y="339.5" as="targetPoint" />
          </mxGeometry>
        </mxCell>
        <mxCell id="4dtUEIqjCvLmsaNRHgBX-17" value="&lt;font style=&quot;font-size: 14px;&quot;&gt;Internet/on-premises destination&lt;/font&gt;" style="ellipse;whiteSpace=wrap;html=1;" vertex="1" parent="1">
          <mxGeometry x="560" y="300" width="120" height="80" as="geometry" />
        </mxCell>
        <mxCell id="4dtUEIqjCvLmsaNRHgBX-19" value="&lt;h1 style=&quot;margin-top: 0px;&quot;&gt;Example Parsed Data&lt;/h1&gt;" style="text;html=1;whiteSpace=wrap;overflow=hidden;rounded=0;" vertex="1" parent="1">
          <mxGeometry x="300" y="440" width="285" height="50" as="geometry" />
        </mxCell>
      </root>
    </mxGraphModel>
  </diagram>
</mxfile>
